{"title":"Dalziel &amp; Pascoe S08","uid":15536387,"size":2705675059,"categoryP":"video","categoryS":"tv_shows","magnet":"?xt=urn:btih:34d4d656d1c413410158e21db8da97892cde5941&amp;dn=Dalziel+%26amp%3B+Pascoe+S08&amp;tr=udp%3A%2F%2Ftracker.leechers-paradise.org%3A6969&amp;tr=udp%3A%2F%2Fzer0day.ch%3A1337&amp;tr=udp%3A%2F%2Fopen.demonii.com%3A1337&amp;tr=udp%3A%2F%2Ftracker.coppersurfer.tk%3A6969&amp;tr=udp%3A%2F%2Fexodus.desync.com%3A6969","seeders":3,"leechers":0,"uploader":"RedBaron58","files":4,"time":1470877214,"description":"Dalziel and Pascoe S08 DVDrip x264 mp4\r\n  \nhttp://www.imdb.com/title/tt0147760/\r\n\r\nThank you for your kind comments and feedback on my other torrents, your feedback is welcome.\r\n\r\nAbout the Series:\r\nThe series is primarily set in Yorkshire, and follows the work of two detectives that are \r\nthrown together as partners.\r\nEpisodes in this series are divided on on the DVDs into part 1 and part 2 but I have encoded\r\nthese together to give the original episode as broadcast, so don't be supprised at credits\r\nat 45 minutes in, as the whole episode is there and all episodes are approx 90 minutes. \r\n\r\nEpisode 1 &quot;A Game of Soldiers&quot;\r\nDalziel and Pascoe investigate the murder of American tourist Nancy D'Amato, whose body \r\nis found by squaddies out on a training exercise.\r\n\r\nEpisode 2 &quot;The Price of Fame&quot;\r\nPascoe and Milligan are forced to investigate the suspicious death of a holiday village \r\nentertainer after Dalziel is suspended for his conduct during an interview with \r\na kidnapping suspect.\r\n\r\nEpisode 3 &quot;Great Escapes&quot;\r\nOn a stormy night out on the Yorkshire moors, Dalziel's car breaks down on the way back \r\nfrom a charity do, leaving him stranded for the evening.\r\n\r\nEpisode 4 &quot;Soft Touch&quot;\r\nThe autopsy of a Russian national who is found dead face down in a lake reveals that \r\nsomeone tried to murder him two years previously with an AK-47 bullet which became \r\nlodged in his spine.\r\n\r\nTechnical: (All episodes are encoded to the same settings)\r\n\r\nGeneral\r\nComplete name                            : I:Dalziel &amp; Pascoe S08Dalziel Pascoe S08E01 - A Game of Soldiers x264 RB58.mp4\r\nFormat                                   : MPEG-4\r\nFormat profile                           : Base Media / Version 2\r\nCodec ID                                 : mp42\r\nFile size                                : 649 MiB\r\nDuration                                 : 1h 30mn\r\nOverall bit rate mode                    : Variable\r\nOverall bit rate                         : 1 001 Kbps\r\nEncoded date                             : UTC 2016-08-04 17:22:31\r\nTagged date                              : UTC 2016-08-04 17:25:37\r\nWriting application                      : HandBrake 0.9.8 2012071700\r\n\r\nVideo\r\nID                                       : 1\r\nFormat                                   : AVC\r\nFormat/Info                              : Advanced Video Codec\r\nFormat profile                           :   \r\nFormat settings, CABAC                   : Yes\r\nFormat settings, ReFrames                : 4 frames\r\nCodec ID                                 : avc1\r\nCodec ID/Info                            : Advanced Video Coding\r\nDuration                                 : 1h 30mn\r\nBit rate                                 : 900 Kbps\r\nWidth                                    : 718 pixels\r\nHeight                                   : 574 pixels\r\nDisplay aspect ratio                     : 16:9\r\nFrame rate mode                          : Variable\r\nFrame rate                               : 25.000 fps\r\nMinimum frame rate                       : 17.661 fps\r\nMaximum frame rate                       : 25.000 fps\r\nColor space                              : YUV\r\nChroma subsampling                       : 4:2:0\r\nBit depth                                : 8 bits\r\nScan type                                : Progressive\r\nBits/(Pixel*Frame)                       : 0.087\r\nStream size                              : 584 MiB (90%)\r\nWriting library                          : x264 core 120\r\nEncoding settings                        : cabac=1 / ref=1 / deblock=1:0:0\r\nEncoded date                             : UTC 2016-08-04 17:22:31\r\nTagged date                              : UTC 2016-08-04 17:25:37\r\nColor range                              : Limited\r\nColor primaries                          : BT.601 NTSC\r\nTransfer characteristics                 : BT.709\r\nMatrix coefficients                      : BT.601\r\n\r\nAudio\r\nID                                       : 2\r\nFormat                                   : AAC\r\nFormat/Info                              : Advanced Audio Codec\r\nFormat profile                           : LC\r\nCodec ID                                 : 40\r\nDuration                                 : 1h 30mn\r\nBit rate mode                            : Variable\r\nBit rate                                 : 96.0 Kbps\r\nMaximum bit rate                         : 187 Kbps\r\nChannel(s)                               : 2 channels\r\nChannel positions                        : Front: L R\r\nSampling rate                            : 48.0 KHz\r\nCompression mode                         : Lossy\r\nStream size                              : 62.3 MiB (10%)\r\nTitle                                    : Stereo\r\nLanguage                                 : English","torrent":{"xt":"urn:btih:34d4d656d1c413410158e21db8da97892cde5941","amp;dn":"Dalziel+%26amp%3B+Pascoe+S08","amp;tr":["udp%3A%2F%2Ftracker.leechers-paradise.org%3A6969","udp%3A%2F%2Fzer0day.ch%3A1337","udp%3A%2F%2Fopen.demonii.com%3A1337","udp%3A%2F%2Ftracker.coppersurfer.tk%3A6969","udp%3A%2F%2Fexodus.desync.com%3A6969"],"infoHash":"34d4d656d1c413410158e21db8da97892cde5941","infoHashBuffer":{"type":"Buffer","data":[52,212,214,86,209,196,19,65,1,88,226,29,184,218,151,137,44,222,89,65]},"announce":[],"urlList":[]}}